<mxfile host="app.diagrams.net" modified="2022-12-20T10:43:51.343Z" agent="5.0 (Windows NT 10.0; Win64; x64) AppleWebKit/537.36 (KHTML, like Gecko) Chrome/108.0.0.0 Safari/537.36" version="20.7.4" etag="D76mxjqH8lQMkyqi8iG5" type="github">
  <diagram id="_1V6Roz1CNDKu1wHV4aL" name="Page-1">
    <mxGraphModel dx="1050" dy="541" grid="1" gridSize="10" guides="0" tooltips="1" connect="1" arrows="1" fold="1" page="1" pageScale="1" pageWidth="827" pageHeight="1169" math="0" shadow="0">
      <root>
        <mxCell id="0" />
        <mxCell id="1" parent="0" />
      </root>
    </mxGraphModel>
  </diagram>
</mxfile>
